<?xml version="1.0" standalone="no"?>
<!DOCTYPE svg PUBLIC "-//W3C//DTD SVG 20010904//EN"
 "http://www.w3.org/TR/2001/REC-SVG-20010904/DTD/svg10.dtd">
<svg version="1.0" xmlns="http://www.w3.org/2000/svg"
 width="389.000000pt" height="289.000000pt" viewBox="0 0 389.000000 289.000000"
 preserveAspectRatio="xMidYMid meet">

<g transform="translate(0.000000,289.000000) scale(0.100000,-0.100000)"
fill="#000000" stroke="none">
<path d="M1862 1725 c0 -16 2 -22 5 -12 2 9 2 23 0 30 -3 6 -5 -1 -5 -18z"/>
<path d="M2022 1725 c0 -16 2 -22 5 -12 2 9 2 23 0 30 -3 6 -5 -1 -5 -18z"/>
<path d="M1561 1667 l-2 -40 38 7 c21 3 48 6 60 6 18 0 21 5 19 32 -2 32 -3
33 -57 33 l-55 1 -3 -39z m105 16 c-1 -7 -6 -16 -10 -20 -4 -4 -6 -3 -4 2 2 6
-1 10 -7 10 -5 0 -9 -3 -8 -6 1 -3 -4 -6 -12 -6 -8 0 -13 3 -12 6 1 3 -2 7 -8
8 -5 0 -9 -2 -8 -6 1 -4 -4 -8 -11 -8 -8 0 -12 7 -11 16 2 9 4 16 4 16 1 0 21
1 45 1 29 0 43 -5 42 -13z"/>
<path d="M2362 1670 l-3 -35 78 -13 c43 -6 97 -12 121 -12 35 0 42 -3 42 -19
0 -11 4 -22 9 -25 12 -8 115 -191 140 -249 l20 -47 191 0 190 0 1 -57 c0 -32
0 -103 -1 -158 l-2 -100 52 79 c69 106 115 159 177 208 l53 40 -27 49 c-15 26
-44 71 -64 99 l-37 52 -7 -44 c-16 -96 -73 -157 -134 -143 -15 3 -42 20 -59
38 -58 60 -108 210 -82 247 9 13 12 12 26 -5 8 -11 22 -19 30 -17 16 3 19 -15
3 -20 -6 -2 -3 -10 8 -20 17 -16 18 -15 19 18 0 19 -3 34 -8 34 -4 0 -8 7 -8
15 0 22 50 40 72 26 29 -18 30 6 1 31 -16 13 -33 33 -39 44 -11 18 -26 19
-386 19 l-374 0 -2 -35z m753 9 c2 -9 -3 -16 -11 -16 -7 0 -12 3 -11 6 1 3 -2
6 -8 6 -5 0 -9 -3 -8 -6 1 -3 -4 -6 -12 -6 -8 0 -13 3 -12 6 1 3 -2 6 -8 6 -5
0 -9 -3 -8 -6 1 -3 -4 -6 -12 -6 -8 0 -13 3 -12 6 1 3 -2 6 -8 6 -5 0 -9 -3
-8 -6 1 -3 -4 -6 -12 -6 -8 0 -13 3 -12 6 1 3 -2 6 -8 6 -5 0 -9 -3 -8 -6 1
-3 -4 -6 -12 -6 -8 0 -13 3 -12 6 1 3 -2 6 -8 6 -5 0 -9 -3 -8 -6 1 -3 -4 -6
-12 -6 -8 0 -13 3 -12 6 1 3 -2 6 -8 6 -5 0 -9 -3 -8 -6 1 -3 -4 -6 -12 -6 -8
0 -13 3 -12 6 1 3 -2 6 -8 6 -5 0 -9 -3 -8 -6 1 -3 -4 -6 -12 -6 -8 0 -13 3
-12 6 1 3 -2 6 -8 6 -5 0 -9 -3 -8 -6 1 -3 -4 -6 -12 -6 -8 0 -13 3 -12 6 1 3
-2 6 -8 6 -5 0 -9 -3 -8 -6 1 -3 -4 -6 -12 -6 -8 0 -13 3 -12 6 1 3 -2 6 -8 6
-5 0 -9 -3 -8 -6 1 -3 -4 -6 -12 -6 -8 0 -13 3 -12 6 1 3 -2 6 -8 6 -5 0 -9
-3 -8 -6 1 -3 -4 -6 -12 -6 -8 0 -13 3 -12 6 1 3 -2 6 -8 6 -5 0 -9 -3 -8 -6
1 -3 -4 -6 -12 -6 -8 0 -13 3 -12 6 1 3 -2 6 -8 6 -5 0 -9 -3 -8 -6 1 -3 -4
-6 -12 -6 -8 0 -13 3 -12 6 1 3 -2 6 -8 6 -5 0 -9 -3 -8 -6 1 -3 -4 -6 -12 -6
-8 0 -13 3 -12 6 1 3 -2 6 -8 6 -5 0 -9 -3 -8 -6 1 -3 -4 -6 -12 -6 -8 0 -13
3 -12 6 1 3 -2 6 -8 6 -5 0 -9 -3 -8 -6 1 -3 -4 -6 -12 -6 -8 0 -13 3 -12 6 1
3 -2 6 -8 6 -5 0 -9 -3 -8 -6 1 -3 -4 -6 -12 -6 -8 0 -13 3 -12 6 1 3 -2 7 -8
8 -5 0 -9 -2 -8 -6 1 -4 -4 -8 -11 -8 -8 0 -12 7 -11 16 2 9 4 16 4 16 1 0
166 0 368 0 326 0 366 -2 368 -16z m-297 -82 c4 -31 -20 -46 -43 -27 -18 15
-20 46 -2 53 25 11 42 1 45 -26z m152 -237 c0 -11 -6 -20 -14 -20 -18 0 -29
16 -21 30 11 18 35 11 35 -10z"/>
<path d="M1690 1609 c-121 -13 -256 -49 -278 -73 -23 -25 -109 -217 -149 -333
-20 -60 -25 -85 -17 -93 9 -9 52 -7 165 4 475 48 720 46 1255 -10 51 -5 62 -3
67 10 13 32 -144 409 -179 432 -31 21 -166 52 -276 64 -112 12 -478 11 -588
-1z"/>
<path d="M3200 1590 c0 -5 5 -10 11 -10 5 0 7 5 4 10 -3 6 -8 10 -11 10 -2 0
-4 -4 -4 -10z"/>
<path d="M3213 1555 c-6 -6 -7 -18 -3 -25 6 -9 10 -7 15 9 8 27 4 33 -12 16z"/>
<path d="M735 1328 c-33 -16 -62 -32 -65 -35 -3 -2 10 -18 29 -35 19 -17 52
-51 73 -75 l38 -44 0 110 c0 61 -3 111 -7 110 -5 -1 -35 -15 -68 -31z"/>
<path d="M343 1263 c-4 -15 -8 -122 -7 -238 0 -179 3 -225 22 -310 22 -98 70
-255 78 -255 2 0 13 9 24 20 29 29 79 26 126 -8 50 -36 137 -132 182 -199 37
-56 47 -65 39 -33 -4 16 4 12 41 -18 26 -20 50 -41 54 -47 4 -5 8 -45 8 -87
l0 -78 1208 2 c664 1 1174 4 1134 5 -53 3 -71 7 -66 16 5 9 3 9 -7 -1 -7 -6
-35 -12 -61 -12 l-48 0 0 331 c1 242 -3 335 -11 346 -10 11 -5 22 27 54 32 33
36 41 24 49 -24 16 -28 13 -59 -54 l-31 -64 0 -191 c0 -221 -7 -253 -64 -276
-21 -9 -67 -15 -111 -15 l-75 0 0 -90 0 -90 -782 0 -783 0 3 90 3 90 -79 0
c-43 0 -93 5 -111 11 -56 20 -61 44 -61 279 0 202 -1 210 -20 210 -10 0 -24
-9 -30 -19 -6 -11 -10 -113 -10 -250 -1 -262 4 -250 -80 -169 -69 67 -177 296
-205 432 -6 29 -6 29 -21 8 -51 -73 -154 -32 -213 85 -36 71 -47 153 -21 153
5 0 11 -9 15 -20 7 -21 65 -68 65 -51 0 5 -7 16 -14 24 -8 8 -14 24 -13 36 1
23 13 28 20 9 3 -7 6 -3 6 8 1 27 26 50 36 34 5 -8 10 -8 20 0 15 12 30 -3 20
-20 -3 -6 2 -21 13 -35 19 -24 20 -24 25 -5 3 13 0 20 -9 20 -8 0 -14 5 -14
10 0 6 4 10 9 10 6 0 0 24 -13 53 -36 82 -59 157 -65 217 l-6 55 -52 3 c-50 3
-53 2 -60 -25z"/>
<path d="M3502 912 c-24 -44 -131 -205 -156 -236 -13 -16 -19 -17 -28 -8 -19
19 -38 14 -38 -9 0 -24 -60 -173 -101 -248 -16 -30 -29 -67 -29 -83 0 -28 2
-27 48 29 114 137 192 174 247 118 65 -64 13 -144 -202 -314 -94 -74 -124
-111 -55 -70 93 56 171 98 217 118 46 20 52 26 72 79 56 144 78 301 69 482 -3
69 -9 138 -14 153 l-7 28 -23 -39z"/>
<path d="M625 779 c-4 -6 -5 -12 -2 -15 2 -3 7 2 10 11 7 17 1 20 -8 4z"/>
<path d="M1430 708 c0 -21 65 -151 83 -166 46 -38 462 -63 702 -43 170 15 223
26 251 52 21 19 90 157 83 164 -2 1 -58 -4 -124 -13 -223 -29 -793 -21 -967
14 -20 4 -28 1 -28 -8z"/>
<path d="M510 426 c0 -2 8 -10 18 -17 15 -13 16 -12 3 4 -13 16 -21 21 -21 13z"/>
<path d="M3329 373 c-13 -16 -12 -17 4 -4 16 13 21 21 13 21 -2 0 -10 -8 -17
-17z"/>
<path d="M3244 288 l-19 -23 23 19 c12 11 22 21 22 23 0 8 -8 2 -26 -19z"/>
<path d="M640 296 c0 -2 8 -10 18 -17 15 -13 16 -12 3 4 -13 16 -21 21 -21 13z"/>
<path d="M556 222 c10 -18 28 -42 39 -52 26 -24 188 -123 180 -110 -5 8 -167
141 -224 184 -10 7 -8 -1 5 -22z"/>
<path d="M3169 203 c-13 -16 -12 -17 4 -4 9 7 17 15 17 17 0 8 -8 3 -21 -13z"/>
<path d="M3129 153 c-13 -16 -12 -17 4 -4 16 13 21 21 13 21 -2 0 -10 -8 -17
-17z"/>
<path d="M3089 103 c-13 -16 -12 -17 4 -4 16 13 21 21 13 21 -2 0 -10 -8 -17
-17z"/>
<path d="M738 13 c7 -3 16 -2 19 1 4 3 -2 6 -13 5 -11 0 -14 -3 -6 -6z"/>
</g>
</svg>
